<?xml version="1.0" encoding="UTF-8" standalone="no"?>
<!-- Created with Inkscape (http://www.inkscape.org/) -->

<svg
   xmlns:dc="http://purl.org/dc/elements/1.1/"
   xmlns:cc="http://creativecommons.org/ns#"
   xmlns:rdf="http://www.w3.org/1999/02/22-rdf-syntax-ns#"
   xmlns:svg="http://www.w3.org/2000/svg"
   xmlns="http://www.w3.org/2000/svg"
   xmlns:sodipodi="http://sodipodi.sourceforge.net/DTD/sodipodi-0.dtd"
   xmlns:inkscape="http://www.inkscape.org/namespaces/inkscape"
   id="svg2"
   version="1.1"
   inkscape:version="0.92.1 r15371"
   width="1010.6413"
   height="392.97336"
   sodipodi:docname="Radicali_Italiani.svg"
   inkscape:export-filename="C:\Documents and Settings\Flanker\Desktop\PCI logo.png"
   inkscape:export-xdpi="272.72726"
   inkscape:export-ydpi="272.72726">
  <metadata
     id="metadata8">
    <rdf:RDF>
      <cc:Work
         rdf:about="">
        <dc:format>image/svg+xml</dc:format>
        <dc:type
           rdf:resource="http://purl.org/dc/dcmitype/StillImage" />
        <dc:title></dc:title>
      </cc:Work>
    </rdf:RDF>
  </metadata>
  <defs
     id="defs6" />
  <sodipodi:namedview
     pagecolor="#ffffff"
     bordercolor="#666666"
     borderopacity="1"
     objecttolerance="10"
     gridtolerance="10"
     guidetolerance="10"
     inkscape:pageopacity="0"
     inkscape:pageshadow="2"
     inkscape:window-width="1600"
     inkscape:window-height="837"
     id="namedview4"
     showgrid="false"
     inkscape:zoom="0.35119048"
     inkscape:cx="1992.6901"
     inkscape:cy="-92.391893"
     inkscape:window-x="-8"
     inkscape:window-y="-8"
     inkscape:window-maximized="1"
     inkscape:current-layer="svg2"
     inkscape:lockguides="true"
     showguides="true"
     inkscape:guide-bbox="true"
     fit-margin-top="0"
     fit-margin-left="0"
     fit-margin-right="0"
     fit-margin-bottom="0" />
  <path
     style="fill:#af1f24;fill-opacity:1;stroke-width:0.24926285"
     d="m 193.44968,392.82478 c -29.4298,-2.66594 -55.541,-20.69298 -69.0827,-47.69423 -6.1402,-12.24334 -9.7333,-25.3679 -12.5702,-45.91551 -1.2235,-8.86227 -1.3384,-9.34277 -2.3487,-9.82562 -0.8864,-0.42365 -1.4689,-0.33745 -14.244204,2.10776 -15.7709,3.0186 -19.6025,3.48039 -28.8783,3.48039 -7.9141,0 -10.1083,-0.22412 -16.0774,-1.6421 -24.3661,-5.78825 -43.4841004,-24.93406 -48.4611004,-48.53176 -4.2542,-20.17009 -0.92270003,-38.19463 10.0991004,-54.6399 4.8635,-7.25663 9.4575,-11.51602 16.1342,-14.9591 1.1414,-0.58861 2.2631,-1.35687 2.4926,-1.70722 0.6912,-1.05503 0.4706,-2.41415 -0.9265,-5.70898 -8.3516,-19.69538 -6.6326,-38.22026 5.4053,-58.25238 2.3964,-3.9877 4.8866,-7.166 7.8232,-9.984796 3.4684,-3.3293 6.5498,-5.4812 11.0475,-7.715 7.2952,-3.6232 13.7508,-5.1378 21.9351,-5.1463 9.1596,-0.01 16.8299,2.1941 23.5554,6.7671 1.165304,0.7923 2.701704,1.7812 3.414204,2.1974 l 1.2955,0.7567 0.1684,-1.1232 c 0.093,-0.6178 0.038,-4.1727 -0.1223,-7.8999 -0.3786,-8.8224 0.1626,-15.1702 2.1135,-24.7888 4.4201,-21.7935 14.1343,-36.9326 30.2708,-47.1758 12.4476,-7.9015004 33.1984,-13.9367004 52.2164,-15.18670042 18.4926,-1.2155 36.1082,2.25430002 52.0769,10.25770042 16.4436,8.2415 27.4581,20.2295 32.661,35.5478 1.5612,4.5961 1.9723,6.9684 1.8227,10.5153 -0.1829,4.3363 -1.5531,7.918 -4.2907,11.2168 -3.2885,3.9626 -4.214,6.2914 -4.6326,11.6572 -0.5616,7.1992 0.5167,18.2709 2.7731,28.474196 1.7484,7.90569 4.1412,16.33704 8.4536,29.78688 7.3201,22.83051 8.9934,30.73707 9.7764,46.19495 0.5714,11.28101 -0.511,23.01654 -3.0731,33.3199 -4.1408,16.6519 -12.7525,32.32971 -23.8987,43.50823 -4.1892,4.20142 -6.5069,6.10971 -11.3428,9.33938 -19.8699,13.27011 -45.0173,15.88079 -67.9241,7.05152 -15.0306,-5.79342 -32.3739,-18.52364 -41.0915,-30.16164 -8.1892,-10.93256 -12.1829,-24.57667 -11.6592,-39.83264 0.4367,-12.72058 2.56,-24.33509 6.0605,-33.15196 1.464,-3.68726 2.1802,-5.09263 4.0242,-7.896 4.5249,-6.8793 11.224,-11.30788 19.726,-13.04049 5.8925,-1.20081 8.972,-0.23279 10.9268,3.4347 0.9386,1.76092 2.2787,6.54931 3.0148,10.77169 0.2987,1.71369 0.7129,4.06922 0.9204,5.23452 2.0063,11.26686 11.0697,23.66106 22.9835,31.42975 11.1109,7.24518 23.5399,9.49754 34.8224,6.31047 6.1147,-1.72724 12.2121,-5.74255 16.447,-10.83066 3.2204,-3.86936 7.1084,-10.15879 7.1084,-11.49911 0,-1.23389 -0.6805,-1.09954 -6.4571,1.2748 -5.548,2.28041 -8.1938,3.16447 -11.5382,3.85527 -14.8543,3.06823 -30.434,-1.89628 -42.6986,-13.60599 -14.9608,-14.2839 -19.425,-32.51673 -12.3173,-50.30626 4.3928,-10.99453 12.3855,-19.08243 22.0257,-22.28811 7.0631,-2.3487 15.9237,-1.6878 23.9887,1.7892 5.0472,2.17598 9.697,6.12012 12.1938,10.34325 6.1616,10.42218 4.7209,28.3162 -3.1709,39.38362 -3.089,4.33198 -2.8589,3.8949 -2.4401,4.6344 0.3396,0.59973 0.5106,0.66007 1.8568,0.65537 3.0518,-0.0106 6.6903,-1.71859 9.2921,-4.36178 3.4567,-3.51161 7.8725,-12.35554 10.1409,-20.31007 3.6364,-12.75108 2.933,-30.38489 -1.5337,-38.44999 -3.7145,-6.706896 -9.9867,-10.791796 -20.5691,-13.395996 -7.0142,-1.726 -12.4471,-2.4088 -19.2782,-2.4229 -8.5774,-0.018 -15.3184,1.0858 -23.1427,3.7885 -8.0975,2.797 -14.6992,6.538 -24.7158,14.005996 -19.1875,14.30536 -32.1972,29.06079 -40.8402,46.32027 -6.466,12.91203 -11.4361,29.20226 -13.2326,43.37174 -1.1005,8.67952 -1.1712,21.35023 -0.1614,28.91449 4.0493,30.33148 17.4156,51.83932 40.4934,65.15828 11.8727,6.85214 27.1659,11.62308 43.2784,13.50138 4.6453,0.54149 15.9105,0.74788 20.5784,0.37701 20.3683,-1.61837 37.1823,-7.52365 49.7138,-17.46017 15.3039,-12.13484 29.335,-35.949 34.5181,-58.58534 1.9956,-8.7157 2.6374,-14.18656 2.8039,-23.90058 0.2543,-14.83724 -0.9362,-23.39328 -6.0732,-43.64966 -5.3923,-21.26276 -6.3229,-25.01701 -7.9148,-31.92822 -3.1555,-13.69993 -6.3842,-31.834296 -6.3842,-35.857596 0,-1.7247 0.6888,-4.1151 1.5236,-5.2876 0.8048,-1.1305 43.6721,-50.4758 44.7353,-51.4957 0.9896,-0.9494 1.8093,-1.0303 2.5256,-0.2493 0.6919,0.7544 11.0372,16.3248 15.6943,23.6211 15.411,24.1444 25.3666,43.8776 31.6164,62.668046 3.6087,10.84977 5.5572,19.99824 6.3746,29.9297 0.4207,5.1116 0.1558,16.42587 -0.497,21.22391 -1.743,12.81229 -5.3817,22.91566 -11.6122,32.24298 -3.0437,4.55644 -4.9895,6.89512 -9.3327,11.21682 -4.3872,4.36555 -7.4099,6.83135 -13.2656,10.82169 -4.5797,3.12081 -5.1808,3.79509 -4.6951,5.26685 0.1618,0.49028 2.3046,3.92955 4.7618,7.64284 9.5233,14.39156 14.3722,23.2383 17.8693,32.60203 5.843,15.64481 7.5604,34.86751 4.521,50.60036 -2.7607,14.28956 -8.7946,26.76016 -18.6808,38.60842 -3.1011,3.71651 -8.0733,8.76969 -10.7992,10.97495 -13.3165,10.77324 -29.6357,14.91389 -50.5955,12.83748 -11.4328,-1.1326 -22.5153,-4.41631 -35.3193,-10.46503 -4.761,-2.24912 -6.0985,-2.53428 -7.5831,-1.61674 -0.4857,0.30016 -1.9744,1.91187 -3.3084,3.58161 -4.05,5.06958 -7.4858,8.11794 -12.4281,11.02661 -6.1163,3.59963 -14.8247,6.33911 -24.9128,7.83703 -3.9204,0.58213 -12.2276,0.84794 -15.9528,0.51049 z m 445.7671,-67.30748 c -4.4378,-0.43072 -6.6936,-1.13791 -9.4842,-2.97333 -2.4696,-1.62432 -4.7795,-4.09676 -5.6592,-6.05746 -1.1556,-2.57578 -1.3944,-3.96964 -1.3788,-8.04875 0.013,-3.3656 0.081,-3.93805 0.6799,-5.73304 1.5381,-4.60818 4.9932,-8.02393 9.8235,-9.71151 3.548,-1.23963 5.2558,-1.38069 16.7151,-1.38069 h 10.5914 l -0.1308,-4.54905 c -0.082,-2.8486 -0.2656,-5.01492 -0.4914,-5.79536 -0.8596,-2.97061 -2.5069,-5.14207 -4.8813,-6.43437 -3.7614,-2.04722 -11.9715,-2.48964 -17.0563,-0.91908 -1.9952,0.61625 -4.1885,2.18446 -5.8538,4.18557 l -1.2322,1.48067 -2.8429,-2.47543 c -1.5636,-1.3615 -2.9528,-2.58366 -3.0872,-2.71592 -0.1584,-0.15589 0.6425,-1.10772 2.2771,-2.7061 2.1602,-2.11242 2.8557,-2.62546 4.8557,-3.58153 3.7586,-1.79681 7.1029,-2.40015 13.3461,-2.4078 6.38,-0.008 10.2374,0.70601 14.2286,2.63309 3.8267,1.84768 6.7599,5.03139 8.0598,8.7482 1.21,3.45974 1.2227,3.73366 1.2227,26.52366 v 21.41467 h -4.2375 -4.2375 v -2.61726 c 0,-1.43949 -0.068,-2.61726 -0.1523,-2.61726 -0.084,0 -0.6727,0.43372 -1.3086,0.96383 -2.78,2.31727 -5.5171,3.64058 -9.0316,4.36653 -2.3067,0.47644 -7.8549,0.6872 -10.7343,0.40772 z m 10.7303,-7.58863 c 2.8536,-0.42846 5.3814,-1.59456 7.1987,-3.32083 2.49,-2.36521 3.0593,-4.36305 3.2319,-11.34228 l 0.1279,-5.17221 -9.8146,0.004 c -10.5714,0.005 -11.915,0.12797 -14.553,1.33568 -1.7639,0.80756 -3.4578,2.40561 -4.2228,3.98386 -0.8522,1.75835 -1.2394,4.46864 -0.9259,6.48213 0.7021,4.50967 3.3072,6.96007 8.5163,8.01066 2.1837,0.44043 7.5685,0.45005 10.4415,0.0187 z m 117.3394,7.56752 c -5.4255,-0.48088 -8.622,-1.81601 -11.9975,-5.01121 -2.4895,-2.35648 -3.6536,-4.42037 -4.2416,-7.52011 -0.4684,-2.46914 -0.4693,-6.51294 0,-8.71836 1.2378,-5.84185 5.758,-10.20799 12.3438,-11.92322 2.008,-0.52295 2.7216,-0.5568 13.6472,-0.64701 l 11.5284,-0.0952 -0.01,-3.53627 c 0,-1.94497 -0.163,-4.40163 -0.3516,-5.45926 -0.886,-4.96853 -3.6517,-7.84539 -8.7378,-9.08874 -2.7038,-0.66097 -9.7951,-0.58537 -12.4417,0.13263 -3.0097,0.81651 -5.0596,2.19979 -7.1303,4.81157 l -0.9206,1.16109 -3.0194,-2.62494 c -3.4626,-3.01024 -3.3949,-2.65574 -0.9754,-5.1112 4.7565,-4.8273 10.0102,-6.41214 20.2125,-6.09732 4.8272,0.14896 6.7142,0.42616 9.8833,1.45193 5.6873,1.8409 9.5052,5.71941 11.2556,11.43433 l 0.5713,1.86541 0.078,22.24671 0.078,22.24671 h -4.2464 -4.2463 v -2.74737 -2.74738 l -1.6604,1.36955 c -4.796,3.95598 -10.8712,5.38286 -19.6178,4.60765 z m 12.2473,-7.81601 c 3.0986,-0.77341 6.1638,-2.88273 7.3463,-5.0555 1.1374,-2.08967 1.4582,-3.97744 1.6115,-9.48375 l 0.1406,-5.04758 -9.8173,0.004 c -7.561,0.003 -10.2049,0.0864 -11.5038,0.36171 -5.0665,1.07362 -7.7747,3.88922 -8.2799,8.60854 -0.3465,3.2359 0.657,6.27993 2.687,8.15109 1.5787,1.4552 3.4815,2.3015 6.348,2.82328 1.8526,0.33723 9.6524,0.0909 11.4676,-0.36213 z m -221.7865,-22.07946 v -29.41301 h 4.2375 4.2375 v 29.41301 29.41302 h -4.2375 -4.2375 z m 42.1879,29.03499 c -3.9543,-0.85901 -7.242,-3.47595 -9.0213,-7.18079 -1.7684,-3.68216 -1.7594,-3.55471 -1.7594,-24.95946 v -19.07913 h -3.739 -3.7389 v -3.36505 -3.36505 h 3.7389 3.739 v -9.09809 -9.0981 h 4.2374 4.2375 v 9.0981 9.09809 h 6.2316 6.2315 v 3.36505 3.36505 h -6.2417 -6.2417 l 0.075,19.13092 c 0.071,18.02163 0.1026,19.20675 0.5463,20.43854 0.5669,1.57424 1.8617,3.1513 3.1101,3.78819 1.2995,0.66292 3.4708,1.01114 6.305,1.01114 h 2.4468 v 3.61431 3.61431 l -4.2997,-0.0199 c -2.6146,-0.012 -4.9104,-0.15245 -5.8576,-0.35822 z m 100.2659,-0.034 c -4.9944,-1.06321 -8.4274,-4.46397 -10.0265,-9.93233 -0.4067,-1.39061 -0.4423,-4.05426 -0.5079,-37.95027 l -0.071,-36.45469 h 4.3677 4.3677 v 35.69055 c 0,40.55185 -0.1403,37.73132 1.9821,39.84103 0.6235,0.61979 1.5824,1.27343 2.1307,1.45256 0.5484,0.17909 2.6516,0.38832 4.6737,0.46497 l 3.6766,0.13939 v 3.58043 3.58044 l -4.4244,-0.0204 c -2.8992,-0.0132 -5.0259,-0.14836 -6.1692,-0.39176 z m 25.0509,-29.00094 v -29.41301 h 4.2374 4.2375 v 29.41301 29.41302 h -4.2375 -4.2374 z m 92.7258,0.12464 v -29.28839 h 4.2374 4.2375 v 3.13463 3.13466 l 1.6825,-1.48656 c 4.7797,-4.22301 9.2757,-5.739 16.2054,-5.46426 2.6883,0.10658 3.9061,0.27782 5.6674,0.79696 6.2629,1.84595 10.7644,6.1647 12.8243,12.30384 1.1828,3.5248 1.256,5.0549 1.2576,26.27879 v 19.87871 h -4.3538 -4.3538 l -0.071,-20.37724 -0.071,-20.37724 -0.584,-1.74484 c -0.8361,-2.49838 -1.8039,-4.06889 -3.5104,-5.69665 -2.7139,-2.58862 -6.608,-3.83242 -11.1091,-3.54826 -4.2191,0.26637 -6.847,1.35111 -9.3694,3.86757 -1.8275,1.82311 -2.8823,3.7601 -3.607,6.62366 -0.3996,1.57898 -0.451,3.62271 -0.5411,21.49892 l -0.1,19.75408 h -4.2214 -4.2213 v -29.28838 z m 66.8024,-0.12464 v -29.41301 h 4.3621 4.3621 v 29.41301 29.41302 h -4.3621 -4.3621 z m -327.5314,-50.84962 v -4.73599 h 4.736 4.736 v 4.73599 4.736 h -4.736 -4.736 z m 167.5047,0 v -4.73599 h 4.8606 4.8606 v 4.73599 4.736 h -4.8606 -4.8606 z m 159.5281,0 v -4.73599 h 4.8607 4.8606 v 4.73599 4.736 h -4.8606 -4.8607 z"
     id="path21"
     inkscape:connector-curvature="0"
     sodipodi:nodetypes="sccccsscccccccccccccccccccccccsccccccccccccccccscsssccccccccccccccccsccscsccsccccsccccsccccccscccccsccccccsccccccccccccccscccssccccccccccccccccccccccsscccscsccccccccccccccccccccccccccccccccccsccccccccccccccccccccccsccccccccccccscccccccccccccccccccccccccsccccccccccccccccccccccccccccccccccccccccccccccccccccccc" />
  <path
     style="fill:#231f20;fill-opacity:1;stroke-width:0.24926285"
     d="m 542.52568,184.12128 c -13.539,-1.00949 -22.1999,-7.62845 -25.2995,-19.33471 -2.3194,-8.75972 -0.9069,-17.88327 3.7219,-24.04094 4.1316,-5.49619 11.3275,-9.24547 19.7082,-10.26843 1.3525,-0.16509 7.1674,-0.2741 14.6442,-0.27453 l 12.4008,-7e-4 v -3.37556 c 0,-7.39196 -1.7574,-11.09711 -6.316,-13.31592 -2.9299,-1.4261 -5.1721,-1.82652 -10.26,-1.83231 -7.5958,-0.009 -11.4126,1.36749 -15.6496,5.64234 l -1.6909,1.706 -7.0956,-6.90643 c -3.9026,-3.79853 -7.0956,-7.01143 -7.0956,-7.13973 0,-0.4019 3.7678,-3.9229 5.974,-5.582586 5.3149,-3.9984 11.3564,-5.8902 21.0977,-6.6067 10.654,-0.7836 21.8717,0.9069 28.6221,4.3133 7.6372,3.853886 12.0551,9.760586 14.1698,18.945136 0.5268,2.28795 0.5333,2.65674 0.6131,34.77896 l 0.081,32.46649 h -10.9756 -10.9755 v -3.7751 -3.7751 l -1.3086,1.23083 c -3.1133,2.92822 -7.196,5.22844 -10.9869,6.19008 -3.6081,0.91526 -8.8746,1.29143 -13.3786,0.95561 z m 14.9041,-18.65476 c 2.28,-0.43623 3.9553,-1.21937 5.7029,-2.66583 3.4805,-2.8809 4.5434,-6.02462 4.5599,-13.48695 l 0.01,-3.94505 -10.4067,0.0996 c -8.8729,0.0849 -10.6244,0.16239 -11.8836,0.52589 -3.1886,0.92041 -5.6642,2.85656 -6.8283,5.34026 -0.6035,1.28759 -0.6683,1.70386 -0.6683,4.29239 0,2.58306 0.066,3.00641 0.6631,4.28113 1.556,3.31908 4.4028,5.23297 8.8178,5.92801 1.9362,0.30482 7.6006,0.0963 10.0346,-0.3694 z m 79.6912,18.66676 c -3.97,-0.54893 -7.9191,-1.74421 -11.2168,-3.39504 -2.6417,-1.32237 -3.8306,-2.16186 -6.0565,-4.27617 -3.2194,-3.05815 -4.8983,-5.88376 -6.5164,-10.96694 -2.2789,-7.159 -2.8988,-14.21013 -2.6756,-30.43253 0.1451,-10.54564 0.3887,-13.78614 1.4145,-18.8198 2.3875,-11.71584 8.1574,-18.591226 18.3881,-21.911026 3.7933,-1.2309 6.4501,-1.6108 11.274,-1.6124 8.9738,0 14.6443,1.9858 19.9595,6.9999 l 1.7264,1.628586 v -20.220486 -20.2205 h 11.2168 11.2169 v 61.194056 61.19403 h -10.9676 -10.9676 v -4.00898 c 0,-2.20494 -0.098,-3.97159 -0.2173,-3.92589 -0.1195,0.0457 -1.1127,0.92435 -2.207,1.95256 -5.2697,4.9512 -10.4828,6.82088 -19.2092,6.88937 -2.4279,0.0191 -4.7509,-0.0119 -5.1622,-0.0687 z m 15.0229,-20.40736 c 2.2026,-0.51932 3.9116,-1.45513 5.602,-3.0675 2.7681,-2.64027 4.3211,-6.2352 5.0847,-11.76964 0.535,-3.87756 0.6189,-16.27576 0.1349,-19.93312 -0.7875,-5.95147 -2.2489,-9.65713 -4.8562,-12.31378 -2.6806,-2.7314 -5.3716,-3.73625 -10.0208,-3.74183 -2.377,-0.003 -3.3514,0.10791 -4.7463,0.53952 -3.5401,1.09539 -6.0869,3.37301 -7.7339,6.91652 -1.6785,3.61128 -2.305,7.45857 -2.5164,15.45429 -0.2964,11.21193 0.8049,18.50496 3.4069,22.55981 1.7179,2.67719 4.5941,4.71221 7.5771,5.36119 2.061,0.4484 6.1547,0.44562 8.068,-0.005 z m 136.1656,20.30959 c -14.5892,-2.02254 -23.6137,-8.39443 -29.6444,-20.93084 -3.3494,-6.96268 -4.4719,-12.45718 -4.685,-22.93219 -0.1413,-6.94891 0.1813,-11.38207 1.1796,-16.21214 2.4565,-11.88496 9.4388,-21.90128 18.631,-26.726666 6.4108,-3.3653 15.7455,-5.1054 23.9248,-4.4599 10.3544,0.8171 17.7998,4.0392 24.7987,10.731886 l 1.188,1.1359 -7.622,7.62497 -7.6219,7.62492 -1.6671,-1.59691 c -3.3948,-3.25202 -6.32,-4.74741 -10.3913,-5.31231 -3.4453,-0.47804 -6.5329,0.007 -9.7212,1.52637 -4.2113,2.00722 -7.4688,6.11839 -8.9612,11.30973 -0.8903,3.09678 -1.1826,5.55166 -1.3082,10.98911 -0.3101,13.41419 2.4816,21.05828 9.1669,25.10062 2.3034,1.39274 4.3733,1.9811 7.4911,2.12929 5.6473,0.26842 9.2505,-1.12568 13.6201,-5.26965 l 1.8134,-1.7197 7.5344,7.45275 c 4.1439,4.09901 7.5688,7.528 7.6109,7.61998 0.1319,0.28813 -4.4593,4.16079 -6.7933,5.73022 -4.2655,2.86819 -9.3669,4.93974 -14.3459,5.82556 -2.7374,0.487 -11.6487,0.71234 -14.1974,0.359 z m 72.0263,0.0858 c -14.3075,-1.06679 -23.0245,-8.24547 -25.8232,-21.26588 -0.5625,-2.61713 -0.6478,-9.77229 -0.144,-12.08925 2.3147,-10.64634 9.2851,-17.19723 21.1103,-19.8399 2.3559,-0.52648 3.2218,-0.56403 16.1984,-0.70256 l 13.7094,-0.14635 0.07,-3.09541 c 0.2247,-9.88972 -3.5742,-14.26957 -13.2245,-15.24678 -4.7964,-0.48569 -9.8078,0.0956 -13.2676,1.53902 -2.0392,0.8507 -4.6055,2.70866 -6.2168,4.50084 l -1.139,1.26686 -5.6694,-5.49262 c -8.6355,-8.36612 -8.6367,-8.36742 -8.3058,-8.98582 0.4452,-0.8318 4.8568,-4.641686 7.1134,-6.143186 5.0714,-3.3745 10.6232,-4.968 19.5767,-5.619 4.5917,-0.3339 10.4401,-0.1747 14.9558,0.4071 8.9993,1.1594 16.076,4.1887 20.781,8.895786 3.727,3.7287 5.8294,7.85006 7.2078,14.13027 0.5119,2.332 0.5233,2.98704 0.6079,34.7187 l 0.086,32.34186 h -10.9764 -10.9764 v -3.61431 c 0,-1.98788 -0.093,-3.61432 -0.2058,-3.61432 -0.1132,0 -0.4778,0.29161 -0.8102,0.64802 -2.3746,2.54647 -7.9598,5.67973 -11.6982,6.56263 -3.5177,0.83078 -8.6537,1.16538 -12.9599,0.8443 z m 14.8295,-18.64049 c 2.5379,-0.48558 4.3722,-1.42012 6.2678,-3.19331 3.1437,-2.94086 3.8693,-5.18867 3.92,-12.14448 l 0.034,-4.61136 -10.2198,9.9e-4 c -8.8981,0.001 -10.4207,0.0565 -11.7738,0.43008 -4.5364,1.25245 -7.303,4.16729 -7.7778,8.19466 -0.6749,5.72391 2.7514,10.4168 8.3348,11.41578 0.8226,0.14717 1.776,0.31757 2.1187,0.37866 1.1341,0.20214 7.2272,-0.11337 9.0965,-0.47103 z M 445.81178,138.42767 V 93.560374 h 10.9675 10.9676 v 4.2159 4.215786 l 1.3818,-1.3491 c 2.5768,-2.515786 6.9791,-5.109186 10.8938,-6.417686 7.4997,-2.5067 17.2644,-2.0155 23.776,1.1961 2.1188,1.0451 6.0708,3.8485 7.1807,5.093786 l 0.4838,0.5428 -2.3517,2.4205 c -1.2934,1.3312 -5.093,5.1899 -8.4435,8.57482 l -6.0917,6.15441 -1.3877,-1.1991 c -3.6004,-3.11116 -6.0298,-4.08412 -10.2365,-4.09967 -4.3674,-0.0161 -6.9937,1.04886 -9.9975,4.05419 -1.4844,1.48509 -2.1172,2.35786 -2.9122,4.01616 -1.8595,3.87878 -1.7862,2.48421 -1.7918,34.0867 l -0.01,28.22902 h -11.2168 -11.2168 z m 265.2156,0 V 93.560374 h 11.2168 11.2169 v 44.867296 44.86732 h -11.2169 -11.2168 z m 240.5858,44.46914 c -10.856,-1.82076 -18.4425,-9.66485 -19.9702,-20.64816 -0.1829,-1.31518 -0.2673,-17.61501 -0.2673,-51.63182 V 60.906974 h 11.2144 11.2144 l 0.065,49.167046 0.065,49.1671 0.7478,1.49555 c 0.9177,1.83551 2.3308,2.97022 4.1699,3.34864 0.7226,0.14869 3.5853,0.26929 6.3614,0.26802 l 5.0476,-0.002 v 9.47199 9.47199 l -8.288,-0.0254 c -5.8221,-0.0178 -8.9043,-0.12874 -10.3595,-0.37281 z m 36.5945,-44.46914 V 93.560374 h 11.2168 11.21682 v 44.867296 44.86732 h -11.21682 -11.2168 z M 710.52888,69.257274 v -9.0981 h 11.4661 11.4661 v 9.0981 9.0981 h -11.4661 -11.4661 z m 277.1802,0 v -9.0981 h 11.4661 11.46612 v 9.0981 9.0981 h -11.46612 -11.4661 z"
     id="path21-8"
     inkscape:connector-curvature="0"
     sodipodi:nodetypes="ccccccscccccscccccccccccccccccccccsccccccccscscccccccccccscccccccsccccsccccccccccccccccsccccscccccccccccsccscsccccccccccccsscscccccccccccccccccccccccccccccccccccccccccccccccsccccccccccccccccccccccccccccccccccccccccc" />
</svg>
